<?xml version="1.0" standalone="no"?>
<!DOCTYPE svg PUBLIC "-//W3C//DTD SVG 20010904//EN"
 "http://www.w3.org/TR/2001/REC-SVG-20010904/DTD/svg10.dtd">
<svg version="1.0" xmlns="http://www.w3.org/2000/svg"
 width="379.000000pt" height="370.000000pt" viewBox="0 0 379.000000 370.000000"
 preserveAspectRatio="xMidYMid meet">

<g transform="translate(0.000000,370.000000) scale(0.100000,-0.100000)"
fill="#000000" stroke="none">
<path d="M1730 3480 c-25 -4 18 -5 95 -2 77 2 166 0 198 -5 31 -6 57 -7 57 -3
0 18 -250 25 -350 10z"/>
<path d="M1648 3463 c7 -3 16 -2 19 1 4 3 -2 6 -13 5 -11 0 -14 -3 -6 -6z"/>
<path d="M2098 3463 c7 -3 16 -2 19 1 4 3 -2 6 -13 5 -11 0 -14 -3 -6 -6z"/>
<path d="M1934 3447 c-3 -8 0 -26 6 -41 14 -37 44 -31 47 9 2 28 0 25 -14 -15
-3 -11 -9 -7 -20 14 -12 24 -13 30 -1 37 10 7 10 9 0 9 -7 0 -15 -6 -18 -13z"/>
<path d="M2160 3457 c3 -3 40 -18 82 -35 88 -34 181 -89 172 -103 -3 -5 -17
-10 -32 -10 -23 -2 -24 -2 -5 -6 21 -4 22 -6 8 -27 -9 -13 -26 -28 -40 -34
-21 -10 -25 -19 -25 -51 0 -66 -19 -57 -23 11 -3 63 -3 63 -5 -14 -1 -43 -1
-78 1 -78 1 0 58 -7 127 -15 156 -19 148 -19 152 5 2 12 7 22 12 23 11 2 40
-45 51 -80 5 -19 2 -23 -14 -23 -26 0 -26 0 -1 -75 11 -33 18 -48 15 -33 -6
33 -1 36 50 27 37 -6 38 -6 8 -8 -45 -2 -58 -44 -44 -148 11 -83 20 -202 21
-268 0 -41 0 -41 35 -37 33 4 35 3 35 -27 0 -28 -3 -31 -29 -31 -23 0 -31 5
-34 23 -2 12 -4 -21 -4 -73 1 -64 2 -75 4 -32 4 60 5 62 31 62 34 0 52 16 52
47 0 12 8 26 17 32 14 7 17 23 15 93 -2 60 -7 86 -17 94 -19 14 -19 24 -1 24
21 0 26 23 26 125 0 92 0 94 -30 115 -16 11 -55 25 -86 30 -51 9 -73 21 -74
42 0 4 12 8 26 10 l25 3 -34 68 c-32 63 -33 71 -25 120 9 49 8 53 -16 73 -14
13 -51 28 -83 35 -32 7 -82 28 -112 47 -63 41 -254 123 -231 99z m414 -219
c20 -28 20 -62 1 -78 -10 -9 -15 -9 -15 -1 0 8 -6 7 -20 -1 -17 -11 -22 -10
-30 2 -9 13 -10 13 -10 0 0 -13 -1 -13 -10 0 -10 16 -6 40 12 78 15 29 52 29
72 0z m161 -348 c0 -14 -4 -23 -9 -22 -5 2 -12 -2 -17 -9 -11 -19 -39 7 -39
38 0 21 4 24 33 21 27 -2 32 -7 32 -28z m42 -17 c-3 -10 -5 -4 -5 12 0 17 2
24 5 18 2 -7 2 -21 0 -30z m-39 -190 c2 -9 -8 -13 -32 -13 -26 0 -36 4 -36 16
0 19 61 16 68 -3z m-21 -29 c19 -5 20 -9 11 -30 -18 -39 -48 -25 -48 22 0 15
5 16 37 8z m60 -26 c-3 -8 -6 -5 -6 6 -1 11 2 17 5 13 3 -3 4 -12 1 -19z"/>
<path d="M1528 3443 c6 -2 18 -2 25 0 6 3 1 5 -13 5 -14 0 -19 -2 -12 -5z"/>
<path d="M2034 3436 c-8 -20 18 -71 36 -71 10 0 16 12 17 35 2 32 0 31 -14
-10 -3 -11 -8 -9 -18 10 -12 22 -12 27 2 38 16 11 15 12 0 12 -10 0 -20 -6
-23 -14z"/>
<path d="M1488 3433 c7 -3 16 -2 19 1 4 3 -2 6 -13 5 -11 0 -14 -3 -6 -6z"/>
<path d="M1601 3433 c-18 -4 -21 -7 -11 -13 12 -7 11 -13 -5 -30 -11 -12 -32
-29 -47 -38 -21 -12 -28 -24 -28 -47 0 -16 -4 -41 -8 -55 -6 -22 -8 -19 -13
20 l-6 45 -1 -57 c-2 -40 2 -58 11 -58 6 0 59 -7 117 -15 153 -21 177 -20 185
8 4 12 12 36 20 52 7 17 15 48 19 71 6 46 -10 71 -66 100 -32 17 -125 26 -167
17z m191 -80 c26 -29 31 -62 15 -87 -14 -21 -21 -22 -61 -16 -26 4 -49 9 -52
12 -9 10 8 78 23 93 20 20 57 19 75 -2z"/>
<path d="M1448 3423 c7 -3 16 -2 19 1 4 3 -2 6 -13 5 -11 0 -14 -3 -6 -6z"/>
<path d="M1408 3413 c7 -3 16 -2 19 1 4 3 -2 6 -13 5 -11 0 -14 -3 -6 -6z"/>
<path d="M1504 3404 c-19 -15 -19 -15 1 -6 11 5 27 12 35 15 13 5 13 6 -1 6
-8 1 -24 -6 -35 -15z"/>
<path d="M2176 3395 c5 -29 -10 -33 -25 -7 -9 14 -10 14 -11 2 0 -19 19 -40
37 -40 15 0 18 56 4 65 -6 3 -8 -6 -5 -20z"/>
<path d="M1345 3400 c-13 -5 -14 -9 -5 -9 8 0 24 4 35 9 13 5 14 9 5 9 -8 0
-24 -4 -35 -9z"/>
<path d="M1140 3330 c-25 -10 -38 -19 -30 -19 17 1 101 37 85 38 -5 0 -30 -9
-55 -19z"/>
<path d="M1471 3334 c0 -11 3 -14 6 -6 3 7 2 16 -1 19 -3 4 -6 -2 -5 -13z"/>
<path d="M1850 3301 c0 -22 5 -43 10 -46 6 -3 10 -15 10 -26 0 -11 -4 -17 -10
-14 -5 3 -10 -3 -10 -14 0 -11 5 -23 10 -26 13 -8 40 55 39 87 -1 18 -2 19 -6
5 -5 -18 -5 -18 -19 0 -18 24 -18 44 0 37 11 -4 13 0 9 15 -10 38 -33 25 -33
-18z"/>
<path d="M1906 3333 c-3 -3 -6 -15 -6 -26 0 -11 3 -17 6 -14 4 3 14 2 24 -3
12 -7 15 -18 12 -42 -5 -36 -22 -54 -34 -35 -5 7 -8 1 -8 -15 0 -18 5 -28 15
-28 8 0 15 8 15 18 0 13 2 14 9 4 7 -11 10 -10 15 3 3 9 4 21 1 25 -3 5 -1 11
5 15 6 4 10 -7 11 -27 1 -18 3 -25 6 -15 2 9 9 17 14 17 13 0 10 50 -6 85
l-13 30 -2 -30 c-2 -22 -4 -24 -7 -10 -3 11 -10 25 -15 30 -8 7 -9 6 -4 -2 4
-7 2 -13 -3 -13 -6 0 -11 6 -11 14 0 17 -14 28 -24 19z"/>
<path d="M2000 3300 c0 -11 6 -19 13 -17 8 1 12 -12 12 -43 0 -31 -4 -44 -12
-42 -7 1 -13 -7 -13 -18 0 -11 7 -20 15 -20 8 0 15 7 15 15 0 8 5 15 10 15 6
0 10 -6 10 -14 0 -30 21 -26 35 6 l14 33 1 -32 c0 -23 5 -33 15 -33 8 0 15 7
15 15 0 8 -4 15 -10 15 -5 0 -10 11 -10 25 0 14 -4 25 -9 25 -5 0 -11 18 -15
40 -6 40 -35 58 -37 23 0 -15 -3 -14 -16 5 -19 27 -33 28 -33 2z m80 -70 c0
-21 -4 -41 -9 -44 -11 -7 -24 56 -15 78 10 27 24 7 24 -34z"/>
<path d="M1045 3290 c-16 -7 -17 -9 -3 -9 9 -1 20 4 23 9 7 11 7 11 -20 0z"/>
<path d="M2150 3226 c0 -73 13 -104 31 -75 7 11 7 79 0 142 -1 4 -8 7 -16 7
-12 0 -15 -15 -15 -74z m30 23 c0 -5 -4 -9 -10 -9 -5 0 -10 7 -10 16 0 8 5 12
10 9 6 -3 10 -10 10 -16z m0 -54 c0 -8 -4 -15 -10 -15 -5 0 -10 7 -10 15 0 8
5 15 10 15 6 0 10 -7 10 -15z"/>
<path d="M2316 3291 c-4 -5 3 -7 14 -4 23 6 26 13 6 13 -8 0 -17 -4 -20 -9z"/>
<path d="M2240 3273 c0 -15 -2 -16 -10 -3 -7 11 -10 -3 -10 -45 0 -42 -3 -56
-10 -45 -8 12 -10 9 -10 -12 0 -18 5 -28 15 -28 11 0 15 12 15 48 l0 47 20
-30 c18 -27 20 -28 20 -8 0 12 -4 25 -10 28 -5 3 -10 13 -10 21 0 9 5 12 11 8
7 -4 10 1 7 11 -4 25 -28 31 -28 8z"/>
<path d="M920 3235 c-36 -19 -60 -34 -55 -34 6 0 39 15 75 34 36 19 61 34 55
34 -5 0 -39 -15 -75 -34z"/>
<path d="M788 3169 c-32 -16 -58 -32 -58 -34 0 -3 27 8 60 25 33 17 60 32 60
35 0 7 2 8 -62 -26z"/>
<path d="M1170 3122 l-215 -67 -3 -352 -2 -351 -218 -6 c-119 -3 -265 -9 -324
-11 l-107 -6 -4 88 c-1 49 -4 -3 -5 -113 -2 -156 -5 -208 -17 -230 -18 -35
-19 -82 -3 -121 6 -15 14 -48 18 -73 l7 -45 2 48 c0 26 4 47 9 47 24 -1 645
-100 649 -104 3 -3 14 -88 24 -188 16 -161 34 -298 55 -420 4 -24 11 -35 18
-31 6 3 5 0 -2 -8 -10 -11 -24 -10 -83 11 -38 13 -77 29 -86 35 -8 6 -35 81
-59 166 -83 288 -134 401 -192 428 -35 17 -87 13 -105 -7 -47 -52 -67 -194
-49 -347 5 -44 8 -82 6 -84 -4 -5 -97 31 -112 44 -7 6 -21 49 -31 95 -11 47
-20 77 -20 67 -2 -40 33 -166 65 -233 27 -58 43 -78 81 -103 25 -17 50 -31 53
-31 4 0 13 -28 19 -62 34 -176 105 -356 158 -398 24 -18 38 -21 88 -18 118 8
152 48 162 191 l6 85 126 -55 c69 -30 140 -61 156 -68 78 -35 138 -55 163 -54
22 1 20 3 -10 9 -21 4 -55 15 -76 24 l-39 18 22 46 c75 159 147 709 162 1249
5 172 9 223 20 227 9 4 13 -3 13 -19 0 -23 3 -24 88 -27 77 -3 91 -1 124 19
24 14 39 19 44 12 7 -13 12 -8 -65 -57 -67 -42 -106 -46 -55 -5 16 12 24 23
17 23 -6 0 -15 -5 -19 -11 -3 -6 -26 -20 -50 -31 -42 -18 -53 -31 -36 -42 14
-8 91 23 150 61 l57 36 350 -6 351 -5 52 -33 c29 -18 50 -34 48 -36 -2 -3 -30
0 -62 6 -32 6 -179 11 -333 11 -257 -1 -280 -2 -331 -22 -43 -17 -86 -23 -200
-27 l-145 -6 -5 -114 c-6 -133 -7 -131 95 -131 l67 0 -8 -52 c-4 -29 -7 -168
-6 -309 2 -201 -1 -264 -12 -296 -8 -22 -20 -76 -27 -119 -7 -44 -16 -83 -21
-88 -4 -6 -8 83 -8 198 0 124 -4 215 -10 227 -7 13 -21 19 -45 19 -65 0 -65
-2 -65 -296 0 -297 -4 -283 75 -266 l46 10 -3 -72 c-3 -70 -3 -71 -38 -88 -19
-9 -46 -18 -60 -19 -22 -2 -23 -2 -4 -6 12 -2 39 3 59 11 21 9 39 16 41 16 2
0 4 -27 4 -60 0 -45 4 -62 15 -66 13 -5 14 -20 9 -93 -8 -111 10 -275 42 -365
44 -126 101 -174 192 -160 94 14 284 73 319 100 38 29 86 99 103 149 l11 32
82 0 c58 0 142 12 285 42 l204 42 36 -32 c34 -30 38 -31 101 -25 112 11 239
45 271 73 17 14 45 50 63 80 30 52 37 58 120 93 48 21 94 44 103 51 25 20 52
81 68 153 9 37 23 80 31 96 8 16 15 40 15 54 0 20 -8 27 -47 40 l-48 16 -1
122 c0 112 -3 129 -28 188 -16 36 -42 84 -59 108 -42 58 -43 105 -4 200 17 40
37 72 44 72 28 0 73 31 88 61 43 83 -56 170 -143 125 -17 -9 -33 -16 -35 -16
-2 0 -16 18 -31 40 -43 65 -90 83 -241 91 -71 3 -147 12 -167 18 -35 11 -38
15 -38 50 0 25 7 44 20 56 42 38 28 44 -120 47 -107 2 -140 0 -140 -9 0 -17
-6 -16 -55 8 -39 18 -39 19 -7 13 41 -7 45 19 5 34 -16 5 -39 19 -53 30 l-25
21 63 1 62 0 0 44 c0 104 -22 359 -40 456 -21 118 -34 158 -52 165 -7 2 -105
14 -218 25 -377 39 -564 58 -681 71 -115 12 -175 8 -164 -11 3 -6 -1 -7 -9 -4
-11 4 -16 0 -16 -11 0 -27 -24 -11 -31 21 -9 44 -28 74 -47 73 -9 0 -114 -31
-232 -67z m255 27 c9 -17 14 -40 12 -52 -4 -20 -5 -19 -18 11 -7 17 -18 32
-23 32 -19 0 -411 -111 -419 -119 -4 -4 -6 -144 -5 -312 l3 -304 103 4 c96 3
102 2 102 -17 0 -17 -10 -20 -92 -26 -50 -4 -96 -10 -101 -13 -7 -4 -8 -121
-5 -322 2 -179 1 -281 -4 -236 -4 44 -10 342 -14 662 -6 564 -6 583 12 590 34
13 409 131 421 132 7 0 20 -13 28 -30z m-25 -39 c0 -22 -3 -23 -51 -13 l-33 6
34 13 c48 17 50 17 50 -6z m213 3 c-7 -2 -19 -2 -25 0 -7 3 -2 5 12 5 14 0 19
-2 13 -5z m70 -10 c-7 -2 -19 -2 -25 0 -7 3 -2 5 12 5 14 0 19 -2 13 -5z
m-400 -28 c-10 -13 -26 -25 -36 -25 -24 0 -32 -28 -31 -97 4 -182 2 -173 29
-183 32 -12 32 -28 1 -36 -22 -5 -25 -13 -32 -71 -14 -130 -24 -42 -22 182 l3
229 45 12 c63 17 63 17 43 -11z m267 13 c0 -10 2 -10 8 0 7 10 32 10 123 2
168 -16 338 -36 343 -41 3 -2 7 -16 11 -31 l7 -28 -83 7 c-46 3 -82 3 -79 0 3
-3 43 -9 89 -13 l84 -6 -7 36 c-8 44 -19 43 199 16 88 -11 186 -20 218 -20 51
0 59 -3 66 -22 5 -14 5 -28 -1 -35 -8 -10 -6 -13 7 -13 13 0 15 6 10 30 -5 23
-3 30 9 30 11 0 16 -9 16 -29 0 -16 4 -41 10 -56 13 -35 37 -233 46 -378 l7
-116 -34 9 c-22 7 -35 7 -37 0 -2 -5 -13 -10 -25 -9 -21 0 -21 1 -3 8 18 7 18
8 3 14 -10 4 -17 17 -17 35 0 31 -35 75 -84 106 -50 32 -224 19 -262 -19 -9
-8 -21 -15 -27 -15 -7 0 -7 -4 2 -12 10 -11 15 -9 27 6 7 11 17 17 20 14 3 -4
26 2 50 12 24 11 44 17 44 13 0 -3 7 0 15 7 12 10 15 10 15 -2 0 -10 8 -13 29
-10 43 6 97 -15 126 -49 24 -29 33 -73 18 -82 -5 -3 -44 2 -88 10 -151 27
-256 39 -262 31 -8 -14 -1 -17 63 -29 32 -7 65 -19 72 -27 8 -11 12 -12 12 -3
0 17 68 6 91 -15 8 -8 22 -14 29 -14 7 0 11 -3 8 -6 -4 -3 -22 -1 -42 4 -21 6
-38 7 -41 1 -3 -4 -36 -7 -73 -5 -37 2 -91 4 -119 5 -49 1 -53 3 -53 25 0 13
11 40 25 61 15 20 23 40 20 43 -3 4 -10 0 -14 -7 -6 -9 -14 -10 -27 -3 -20 10
-246 -16 -260 -30 -4 -5 -22 -8 -41 -8 -39 0 -223 -29 -236 -37 -5 -3 -5 -9 1
-15 9 -9 127 0 222 17 19 3 16 1 -10 -11 -19 -9 -43 -20 -52 -25 -10 -5 -58
-9 -108 -9 l-90 0 0 88 c0 123 8 160 33 164 11 2 22 9 23 16 1 7 0 8 -3 2 -2
-5 -16 -10 -29 -10 l-24 0 0 133 c-1 72 -3 165 -6 205 -3 40 -3 79 0 87 7 18
36 20 36 3z m437 -14 c-3 -3 -12 -4 -19 -1 -8 3 -5 6 6 6 11 1 17 -2 13 -5z
m-596 -14 c14 0 19 -7 19 -27 -1 -23 -2 -25 -10 -12 -6 10 -29 20 -55 23 -27
5 -43 11 -39 18 4 5 20 7 36 4 17 -3 39 -6 49 -6z m-211 -255 c-1 -215 -3
-255 -16 -255 -17 0 -19 -16 -1 -23 8 -3 13 -23 12 -53 l0 -49 -93 -5 -92 -5
-2 25 c-5 92 0 110 30 111 27 2 27 2 2 6 -14 3 -28 10 -32 15 -3 6 -7 107 -7
225 -2 189 0 214 15 220 30 11 149 42 167 42 16 1 17 -16 17 -254z m271 159
l5 -89 2 88 c2 70 5 87 17 87 13 0 15 -41 15 -310 0 -271 -2 -309 -15 -304 -8
4 -16 16 -16 28 -2 20 -2 20 -6 -1 -2 -13 -9 -23 -14 -23 -5 0 -9 102 -10 248
0 136 -3 276 -6 311 -4 51 -3 63 8 59 10 -3 16 -31 20 -94z m-183 26 c-6 -55
-11 -66 -27 -55 -12 7 -15 87 -4 98 3 4 13 7 21 7 11 0 14 -11 10 -50z m110
31 c8 -5 12 -21 10 -41 -2 -28 -7 -33 -30 -36 -15 -1 -30 2 -34 7 -3 5 -10 7
-15 4 -5 -4 -9 12 -9 34 0 40 1 41 33 41 17 0 38 -4 45 -9z m42 -231 c0 -93
-4 -150 -10 -150 -5 0 -10 15 -10 33 0 43 -15 57 -63 57 -31 0 -38 3 -35 18 2
12 14 17 38 18 19 0 41 1 48 2 8 2 12 27 12 87 0 50 4 85 10 85 6 0 10 -57 10
-150z m87 18 c-3 -8 -6 -5 -6 6 -1 11 2 17 5 13 3 -3 4 -12 1 -19z m1120 -70
c-3 -7 -5 -2 -5 12 0 14 2 19 5 13 2 -7 2 -19 0 -25z m-1357 -40 c0 -27 -10
-42 -27 -45 -9 -2 -13 9 -13 32 0 28 4 35 20 35 14 0 20 -7 20 -22z m110 -11
c0 -32 -2 -33 -40 -35 -40 -3 -40 -2 -40 33 0 34 1 35 40 35 39 0 40 -1 40
-33z m40 -126 c0 -78 -9 -121 -26 -121 -8 0 -14 6 -14 13 0 9 -2 9 -9 -1 -5
-8 -21 -12 -37 -10 -23 2 -30 9 -32 31 -3 24 0 27 25 26 62 -2 68 3 71 64 4
75 22 73 22 -2z m-213 -3 c-3 -8 -6 -5 -6 6 -1 11 2 17 5 13 3 -3 4 -12 1 -19z
m34 -48 c19 0 29 -20 29 -56 0 -21 -4 -24 -40 -24 -44 0 -46 6 -34 69 5 23 10
29 17 22 6 -6 19 -11 28 -11z m752 -17 c-7 -2 -19 -2 -25 0 -7 3 -2 5 12 5 14
0 19 -2 13 -5z m92 -23 c-8 -16 -15 -38 -15 -50 0 -19 -5 -20 -146 -20 -131 0
-145 2 -134 16 23 27 49 35 179 59 69 12 127 23 129 24 1 0 -4 -12 -13 -29z
m-152 13 c-7 -2 -19 -2 -25 0 -7 3 -2 5 12 5 14 0 19 -2 13 -5z m-178 -23 c-3
-5 -21 -9 -38 -9 l-32 2 35 7 c19 4 36 8 38 9 2 0 0 -3 -3 -9z m578 -7 c-7 -2
-19 -2 -25 0 -7 3 -2 5 12 5 14 0 19 -2 13 -5z m-939 -43 l59 0 -7 -197 c-21
-631 -110 -1261 -185 -1307 -5 -3 -33 4 -62 16 -54 21 -93 56 -102 90 -7 26 2
22 12 -6 7 -16 30 -32 75 -51 75 -32 89 -28 106 34 17 59 67 365 84 516 35
308 64 784 52 842 l-6 28 -115 -3 c-109 -3 -115 -2 -115 17 0 24 26 31 95 25
28 -2 77 -4 109 -4z m1096 0 c0 -5 -11 -10 -25 -10 -14 0 -25 5 -25 10 0 6 11
10 25 10 14 0 25 -4 25 -10z m107 4 c-3 -3 -12 -4 -19 -1 -8 3 -5 6 6 6 11 1
17 -2 13 -5z m32 -20 c2 -2 -23 -4 -57 -4 -38 0 -62 4 -62 11 0 10 108 3 119
-7z m-109 -41 c57 -36 73 -53 49 -53 -16 0 -119 70 -119 81 0 14 6 12 70 -28z
m-1110 -125 c0 -129 -14 -379 -25 -465 -4 -24 -11 -42 -17 -40 -11 2 -40 -88
-30 -97 2 -3 0 -12 -7 -19 -6 -8 -8 -23 -4 -32 4 -12 3 -16 -4 -12 -7 5 -16
-19 -24 -65 -7 -40 -15 -77 -20 -83 -4 -5 -12 -36 -19 -67 -12 -58 -21 -71
-52 -73 -17 -2 -18 28 -18 535 0 295 3 540 7 543 3 4 53 7 110 7 l103 0 0
-132z m-233 -415 c-4 -295 -8 -537 -10 -539 -1 -1 -26 -5 -54 -9 -36 -5 -53
-3 -53 4 0 6 -7 56 -15 112 -35 232 -68 840 -51 932 l7 37 91 0 91 0 -6 -537z
m733 480 c0 -5 -17 -18 -38 -31 -40 -25 -69 -64 -95 -128 -22 -58 -41 -243
-33 -335 7 -74 7 -77 -16 -82 -13 -4 -34 -4 -46 0 -17 4 -22 1 -22 -15 0 -27
15 -35 30 -17 7 8 23 15 36 15 22 0 24 -4 24 -43 0 -35 -6 -49 -29 -71 -16
-15 -40 -50 -52 -76 -13 -27 -27 -46 -31 -44 -9 6 -11 431 -2 498 l7 46 47 0
48 0 4 88 c3 72 8 94 26 117 12 15 22 33 22 40 0 12 33 29 75 38 33 8 45 7 45
0z m643 -22 c29 -10 120 -50 202 -89 191 -89 235 -102 354 -102 53 0 113 -5
133 -10 200 -56 200 -367 3 -1006 l-35 -111 -87 -17 c-49 -10 -106 -22 -128
-27 -86 -20 -357 -70 -361 -67 -2 2 4 28 12 58 24 89 29 234 10 314 -25 104
-78 197 -152 265 l-64 58 58 50 c31 27 65 52 75 56 18 7 23 22 8 31 -5 3 -28
-12 -52 -35 -60 -55 -99 -83 -99 -69 0 6 16 41 35 79 30 61 38 69 69 75 76 14
114 118 65 179 -24 31 -83 50 -128 41 -34 -7 -77 -51 -87 -89 -9 -37 14 -93
47 -112 16 -10 29 -23 29 -30 0 -22 -58 -131 -72 -135 -7 -3 -41 8 -76 24
-159 72 -409 97 -501 50 -25 -12 -46 -22 -48 -22 -2 0 -3 18 -3 40 0 37 2 40
28 41 l27 2 -29 4 -28 5 4 176 c4 149 8 185 26 230 38 97 88 145 172 163 19 5
149 6 288 3 208 -4 262 -8 305 -23z m-1666 9 l63 0 0 -120 c0 -118 0 -120 -22
-120 -13 0 -159 9 -325 22 l-303 22 0 98 0 97 143 4 c78 2 196 2 261 0 66 -1
148 -3 183 -3z m733 -40 c0 -5 -9 -19 -20 -30 -17 -17 -20 -33 -20 -105 l0
-85 -27 0 c-72 0 -73 2 -73 114 0 57 3 106 7 109 10 11 133 8 133 -3z m1180 3
c-1 -5 -9 -18 -19 -30 l-18 -22 -42 21 c-22 11 -38 24 -35 29 6 11 114 12 114
2z m79 -64 c7 -17 11 -32 8 -35 -8 -8 -97 37 -97 48 0 6 8 16 17 23 24 17 55
1 72 -36z m-1182 2 c42 -62 28 -91 -45 -94 l-52 -2 0 49 c0 87 53 113 97 47z
m-1082 -176 c88 -8 194 -18 235 -21 94 -8 110 -16 110 -56 0 -30 -1 -30 -37
-25 -53 9 -407 55 -525 68 -95 11 -98 13 -98 37 l0 25 78 -6 c42 -4 149 -13
237 -22z m2903 -48 c9 -10 -1 -13 -49 -13 -51 0 -58 2 -43 13 23 17 78 17 92
0z m-958 -52 c12 -13 12 -15 0 -16 -102 -4 -120 -3 -120 7 0 33 89 39 120 9z
m880 -114 c-1 -3 -7 -17 -15 -31 l-14 -25 -1 37 c0 29 3 36 15 32 8 -4 15 -9
15 -13z m-2718 -143 c14 -43 22 -76 18 -73 -5 3 -12 -4 -15 -16 -6 -17 -9 -18
-16 -8 -4 7 -4 18 2 25 14 17 -7 68 -26 60 -9 -3 -20 5 -29 22 -8 15 -24 36
-36 47 l-22 20 43 5 c24 3 47 3 50 0 3 -3 18 -40 31 -82z m-96 25 c87 -115
179 -521 154 -688 -4 -27 -8 -42 -9 -32 -1 16 -3 16 -25 2 -23 -16 -24 -15
-19 5 3 12 15 25 26 29 18 7 18 8 4 14 -10 4 -17 2 -17 -3 0 -6 -5 -10 -11
-10 -6 0 -9 9 -6 20 3 11 2 18 -2 16 -4 -3 -7 30 -8 72 0 144 -51 340 -99 389
-33 33 -51 20 -65 -45 -13 -67 0 -208 31 -319 10 -37 16 -72 13 -77 -3 -5 -1
-6 5 -2 7 4 12 0 12 -10 0 -10 8 -26 17 -36 9 -10 17 -26 18 -36 0 -9 5 -23 9
-31 5 -8 2 -19 -10 -29 -13 -12 -15 -13 -8 -2 12 17 -16 106 -29 94 -4 -4 -2
-13 4 -21 8 -9 8 -13 1 -13 -11 0 -24 31 -21 46 1 5 -3 23 -10 39 -24 56 -61
259 -67 370 -8 135 1 232 26 273 23 38 49 34 86 -15z m383 -96 c4 -37 4 -64 0
-60 -4 5 -10 49 -12 98 -5 92 -2 83 12 -38z m1113 68 c85 -16 219 -64 222 -80
0 -5 -17 -14 -38 -20 -22 -6 -42 -17 -44 -23 -4 -14 29 -16 44 -3 5 4 24 13
43 20 41 13 58 2 40 -26 -8 -13 -9 -36 -5 -66 6 -42 10 -47 33 -47 22 0 24 3
18 23 -4 12 -6 31 -5 42 1 11 2 27 3 37 1 15 4 15 27 -2 90 -64 159 -180 186
-311 15 -73 15 -96 5 -177 -7 -52 -19 -115 -27 -141 l-13 -47 -104 -18 c-107
-19 -134 -18 -225 5 -49 13 -53 16 -48 39 3 14 11 82 18 151 10 110 10 140 -5
228 -34 209 -133 330 -270 331 -196 1 -363 -272 -398 -649 -6 -64 -12 -120
-15 -126 -2 -5 -2 62 0 150 8 247 37 399 105 545 31 67 113 152 161 167 51 16
203 15 292 -2z m-1412 -59 c0 -6 -7 -2 -15 8 -8 11 -15 25 -15 30 0 6 7 2 15
-8 8 -11 15 -25 15 -30z m737 -78 c-3 -8 -6 -5 -6 6 -1 11 2 17 5 13 3 -3 4
-12 1 -19z m-119 -13 c0 -14 -4 -25 -9 -25 -10 0 -11 12 -3 34 9 22 12 20 12
-9z m2138 -49 c20 -41 39 -94 41 -119 l5 -44 -55 -6 c-87 -11 -85 -8 -86 -97
-1 -43 -4 -85 -7 -93 -8 -23 6 -25 71 -12 33 7 61 12 63 10 8 -7 -14 -67 -28
-75 -23 -12 -230 -54 -236 -47 -3 2 13 65 36 138 22 74 55 193 73 266 31 127
42 149 79 152 4 1 23 -32 44 -73z m-2837 0 c23 -45 22 -66 -4 -66 -9 0 -15
-15 -18 -42 -2 -28 -4 -18 -5 30 -2 54 1 71 10 66 8 -5 9 -2 5 10 -4 10 -7 20
-7 22 0 3 -4 2 -10 -1 -5 -3 -10 -41 -10 -84 0 -133 43 -315 86 -362 16 -17
16 -19 -1 -25 -22 -9 -38 12 -65 85 -58 153 -69 435 -16 415 6 -2 22 -24 35
-48z m388 22 c-3 -8 -6 -5 -6 6 -1 11 2 17 5 13 3 -3 4 -12 1 -19z m1165 -78
c15 -30 30 -73 33 -95 4 -29 3 -35 -4 -20 -8 17 -10 17 -10 3 -1 -9 -5 -20
-11 -23 -5 -3 -7 0 -4 8 4 10 -3 13 -28 9 -18 -2 -38 -9 -45 -14 -7 -5 -17 -7
-23 -3 -13 8 -13 35 0 35 6 0 10 5 10 11 0 5 -4 7 -10 4 -5 -3 -10 1 -10 10 0
9 -4 13 -10 10 -5 -3 -12 6 -16 19 -3 14 -21 39 -40 56 -33 29 -33 30 -12 34
13 3 32 7 43 10 11 2 40 3 65 3 44 -2 46 -3 72 -57z m-657 -145 l0 -190 -40 0
-40 0 -2 180 c-2 196 -1 203 54 201 l28 -1 0 -190z m463 152 c75 -70 103 -171
108 -392 l4 -170 -47 -16 c-47 -15 -48 -17 -47 -55 1 -66 16 -178 25 -196 6
-10 3 -30 -7 -54 -9 -21 -18 -47 -20 -57 -5 -27 -14 -34 -14 -11 -1 10 -7 33
-15 49 l-14 30 6 -32 c3 -21 1 -33 -6 -33 -6 0 -11 5 -11 11 0 5 -5 7 -12 3
-9 -6 -9 -9 0 -12 18 -6 15 -22 -4 -22 -13 0 -15 6 -10 32 10 46 8 90 -3 101
-7 7 -5 21 3 42 36 85 45 321 16 417 -13 45 -61 98 -89 98 -12 0 -39 -16 -60
-36 -49 -43 -93 -145 -116 -264 -19 -104 -19 -281 1 -307 16 -22 18 -49 3 -59
-8 -4 -9 1 -5 17 7 24 7 24 -8 -1 -9 -14 -15 -19 -16 -12 0 10 -3 10 -14 0 -8
-7 -12 -16 -10 -20 2 -4 0 -9 -6 -13 -5 -3 -10 3 -10 14 0 12 5 21 10 21 6 0
10 7 10 15 0 8 -6 12 -14 9 -22 -8 -30 69 -23 221 22 434 246 822 395 682z
m-648 -12 c0 -86 -38 -230 -41 -152 0 12 -2 36 -5 52 -7 45 -7 57 -6 94 2 25
6 32 17 27 8 -3 15 -1 15 4 0 6 5 10 10 10 6 0 10 -16 10 -35z m-671 -55 c0
-10 -3 -9 -8 3 -4 10 -11 18 -16 17 -5 -1 -11 4 -14 11 -2 7 1 9 8 5 6 -4 11
-1 12 6 1 17 18 -23 18 -42z m-169 -40 c0 -10 3 -25 6 -34 11 -28 -17 -17 -57
23 -52 52 -50 64 6 44 31 -10 45 -20 45 -33z m156 -84 l4 -71 -15 40 c-9 22
-18 69 -21 105 l-4 65 16 -34 c8 -19 17 -66 20 -105z m381 102 c-3 -7 -5 -2
-5 12 0 14 2 19 5 13 2 -7 2 -19 0 -25z m-360 -20 c-3 -8 -6 -5 -6 6 -1 11 2
17 5 13 3 -3 4 -12 1 -19z m370 -30 c-3 -8 -6 -5 -6 6 -1 11 2 17 5 13 3 -3 4
-12 1 -19z m1160 -40 c-3 -7 -5 -2 -5 12 0 14 2 19 5 13 2 -7 2 -19 0 -25z
m1243 -25 c0 -65 -6 -79 -35 -85 -15 -2 -20 2 -19 20 3 117 2 114 47 121 4 0
7 -25 7 -56z m-2333 -15 c-3 -8 -6 -5 -6 6 -1 11 2 17 5 13 3 -3 4 -12 1 -19z
m193 -12 c0 -19 -7 -41 -15 -49 -8 -9 -11 -17 -7 -19 9 -3 -19 -133 -31 -144
-3 -4 -20 -1 -37 6 l-31 13 2 102 2 103 51 10 c28 5 54 10 59 11 4 0 7 -14 7
-33z m-613 -93 c-2 -21 -4 -4 -4 37 0 41 2 58 4 38 2 -21 2 -55 0 -75z m370
75 c-3 -8 -6 -5 -6 6 -1 11 2 17 5 13 3 -3 4 -12 1 -19z m30 0 c-3 -8 -6 -5
-6 6 -1 11 2 17 5 13 3 -3 4 -12 1 -19z m72 -68 c-1 -79 -4 -90 -19 -90 -11 0
-24 15 -34 40 -19 47 -20 53 -6 45 6 -3 10 -1 10 4 0 6 5 11 11 11 5 0 7 -4 4
-10 -3 -5 0 -10 7 -10 10 0 13 10 10 35 -4 35 2 65 13 65 3 0 5 -40 4 -90z
m-164 17 c55 -23 61 -29 77 -73 10 -26 16 -49 14 -51 -4 -4 -126 47 -144 61
-15 11 -36 49 -46 84 -8 25 -16 26 99 -21z m72 11 c-3 -8 -6 -5 -6 6 -1 11 2
17 5 13 3 -3 4 -12 1 -19z m-397 -37 c-1 -25 -1 -25 -15 -7 -19 26 -19 47 0
40 8 -4 15 -18 15 -33z m1194 33 c9 -4 21 -16 27 -28 9 -19 9 -19 -4 -3 -21
25 -41 21 -75 -17 -66 -75 -106 -234 -100 -401 6 -176 40 -225 110 -158 34 32
37 26 6 -9 -83 -93 -147 -24 -156 168 -6 124 15 238 62 339 43 92 84 127 130
109z m23 -64 c6 -14 15 -37 18 -52 7 -27 6 -28 -32 -28 -26 0 -46 -6 -56 -18
-56 -61 -86 -238 -53 -315 15 -38 17 -39 56 -32 22 4 40 4 40 1 0 -10 -52 -90
-64 -98 -21 -15 -36 -8 -53 25 -27 51 -24 258 5 360 25 89 45 132 75 165 26
28 48 25 64 -8z m-1189 -82 c-19 -12 -30 -10 -24 5 3 6 9 21 13 31 6 18 7 18
15 -4 6 -16 5 -26 -4 -32z m-2 -35 c-10 -10 -19 5 -10 18 6 11 8 11 12 0 2 -7
1 -15 -2 -18z m1214 -55 c0 -46 -5 -103 -11 -128 -24 -106 -29 -120 -49 -120
-18 0 -18 2 3 48 16 37 21 67 21 142 1 52 -3 105 -7 118 -7 19 -5 22 17 22 26
0 26 -1 26 -82z m-1170 62 c0 -5 -5 -10 -11 -10 -5 0 -7 5 -4 10 3 6 8 10 11
10 2 0 4 -4 4 -10z m1121 -32 c14 -54 6 -139 -21 -211 -27 -71 -44 -87 -61
-56 -28 53 -6 227 36 287 23 32 33 28 46 -20z m1625 -40 c-3 -13 -6 -35 -6
-49 0 -24 -6 -28 -65 -44 -36 -9 -68 -15 -71 -12 -3 3 -2 26 1 51 7 44 9 46
54 60 25 8 57 14 70 15 19 1 22 -3 17 -21z m-802 -182 c13 -67 2 -82 -74 -101
-37 -9 -79 -15 -91 -13 -22 3 -24 8 -24 58 l0 55 65 17 c102 26 117 24 124
-16z m-779 -26 c-9 -41 -17 -33 -9 9 4 17 9 30 11 27 3 -2 2 -19 -2 -36z m-30
-85 c-10 -19 -19 -34 -22 -32 -2 3 4 21 13 41 10 19 19 34 22 32 2 -3 -4 -21
-13 -41z m31 -32 c-2 -16 -10 -29 -20 -31 -12 -3 -14 1 -9 15 6 18 23 43 29
43 1 0 1 -12 0 -27z m-36 -52 c0 -5 -10 -11 -22 -14 -22 -6 -22 -6 -4 8 23 17
26 18 26 6z m30 -1 c0 -5 -5 -10 -11 -10 -5 0 -7 5 -4 10 3 6 8 10 11 10 2 0
4 -4 4 -10z m-196 -35 c3 -8 1 -15 -4 -15 -6 0 -10 7 -10 15 0 8 2 15 4 15 2
0 6 -7 10 -15z m-29 -5 c3 -5 -1 -10 -9 -10 -9 0 -16 5 -16 10 0 6 4 10 9 10
6 0 13 -4 16 -10z m169 1 c4 -5 0 -11 -6 -14 -8 -3 -3 -9 12 -15 14 -6 18 -11
10 -11 -8 0 -24 6 -34 14 -11 8 -14 15 -7 15 7 0 9 5 6 10 -3 6 -2 10 4 10 5
0 12 -4 15 -9z m-84 -31 c-14 -4 -32 -8 -40 -9 -13 -1 -13 0 0 9 8 5 26 9 40
9 l25 -1 -25 -8z m60 -10 c8 -5 11 -10 5 -10 -5 0 -17 5 -25 10 -8 5 -10 10
-5 10 6 0 17 -5 25 -10z m-43 -6 c-3 -3 -12 -4 -19 -1 -8 3 -5 6 6 6 11 1 17
-2 13 -5z"/>
<path d="M1561 3048 c-1 -16 4 -28 9 -28 12 0 12 8 0 35 -8 18 -9 17 -9 -7z"/>
<path d="M1590 3018 c0 -4 30 -8 68 -7 77 1 73 6 -10 12 -32 2 -58 0 -58 -5z"/>
<path d="M1770 3004 c36 -8 100 -9 100 -2 0 5 -26 7 -57 7 -32 -1 -51 -3 -43
-5z"/>
<path d="M2140 2979 c0 -4 37 -10 83 -14 178 -15 285 -20 281 -14 -2 4 -57 10
-121 13 -65 4 -146 11 -180 15 -35 4 -63 4 -63 0z"/>
<path d="M1790 2692 c0 -4 -8 -8 -17 -9 -10 -1 -43 -5 -73 -8 -30 -3 -63 -7
-72 -8 -10 -1 -18 -7 -18 -14 0 -9 7 -10 23 -4 22 8 155 26 170 23 4 -1 7 4 7
11 0 8 4 7 10 -3 8 -13 10 -12 10 3 0 10 -8 17 -20 17 -11 0 -20 -4 -20 -8z"/>
<path d="M1050 2552 c0 -11 69 -12 76 -1 3 5 -13 9 -35 9 -23 0 -41 -4 -41 -8z"/>
<path d="M1462 2840 c-8 -13 -7 -319 0 -312 5 5 7 78 5 163 -1 85 -4 152 -5
149z"/>
<path d="M3233 1643 c-7 -2 -13 -18 -13 -34 0 -28 2 -29 48 -29 57 0 68 7 77
43 7 27 7 27 -46 26 -30 0 -60 -3 -66 -6z"/>
<path d="M3108 1633 c-24 -4 -28 -9 -28 -40 l0 -35 53 7 c53 7 80 27 75 55 -3
16 -48 21 -100 13z"/>
<path d="M2927 1613 c-4 -3 -7 -19 -7 -35 0 -27 2 -28 48 -28 53 0 77 13 85
48 5 21 2 22 -57 22 -35 0 -66 -3 -69 -7z"/>
<path d="M2783 1600 c-17 -7 -23 -18 -23 -41 l0 -32 61 7 c75 7 79 10 79 47 0
28 -1 29 -47 28 -27 0 -58 -4 -70 -9z"/>
<path d="M3250 1561 c-31 -5 -35 -10 -38 -40 l-3 -33 53 7 c61 8 66 12 70 45
3 28 -17 33 -82 21z"/>
<path d="M3098 1543 c-25 -4 -28 -9 -28 -40 l0 -35 43 7 c68 11 75 14 79 45 4
29 3 30 -31 29 -20 -1 -48 -4 -63 -6z"/>
<path d="M2965 1531 c-46 -6 -50 -8 -56 -38 -3 -18 -5 -34 -2 -36 7 -8 108 6
121 16 15 12 12 60 -3 62 -5 1 -32 -1 -60 -4z"/>
<path d="M2800 1511 c-44 -6 -45 -7 -45 -41 0 -33 2 -35 30 -32 77 6 95 13
101 37 3 13 3 29 -1 34 -7 12 -13 12 -85 2z"/>
<path d="M3223 1463 c-13 -2 -23 -10 -23 -16 0 -7 -3 -22 -6 -35 -6 -23 -5
-23 47 -16 62 8 65 9 74 47 7 26 6 27 -31 26 -22 -1 -49 -4 -61 -6z"/>
<path d="M3118 1450 c-56 -7 -71 -19 -66 -51 3 -21 7 -23 48 -20 59 4 80 16
80 46 0 30 -5 32 -62 25z"/>
<path d="M2946 1431 c-32 -5 -41 -11 -49 -34 -13 -40 -1 -47 66 -35 47 8 58
14 63 33 11 44 1 49 -80 36z"/>
<path d="M2775 1411 c-25 -5 -31 -11 -33 -40 l-3 -34 58 6 c59 6 83 23 83 59
0 14 -8 18 -37 17 -21 -1 -51 -4 -68 -8z"/>
<path d="M3270 1384 c-8 -2 -31 -5 -51 -9 -32 -5 -37 -10 -41 -36 l-5 -31 55
5 c59 6 66 10 76 43 7 22 -6 33 -34 28z"/>
<path d="M3053 1352 c-6 -4 -13 -21 -15 -37 -3 -33 0 -33 80 -20 31 6 57 38
45 58 -5 9 -94 9 -110 -1z"/>
<path d="M2937 1340 c-27 -5 -50 -10 -52 -12 -2 -2 -5 -16 -7 -33 -2 -20 1
-30 10 -29 6 1 29 2 50 3 46 1 69 18 74 51 4 29 -6 31 -75 20z"/>
<path d="M2780 1321 c-40 -5 -45 -9 -54 -39 -5 -18 -7 -35 -4 -38 3 -3 32 -2
64 3 52 7 60 11 68 36 8 22 7 30 -4 37 -8 6 -17 9 -20 8 -3 0 -25 -4 -50 -7z"/>
<path d="M3193 1283 c-25 -3 -34 -11 -42 -35 -6 -17 -9 -33 -7 -35 2 -3 25 -1
51 3 49 7 85 32 85 59 0 15 -16 17 -87 8z"/>
<path d="M3063 1263 c-34 -4 -47 -15 -57 -50 -6 -20 -4 -23 21 -23 53 0 100
19 107 43 11 40 11 40 -71 30z"/>
<path d="M2913 1243 c-46 -4 -59 -16 -65 -53 -3 -22 0 -25 27 -22 77 6 96 13
106 38 10 28 5 45 -14 42 -7 -1 -31 -3 -54 -5z"/>
<path d="M2773 1220 c-59 -6 -69 -13 -79 -54 l-7 -29 49 7 c27 4 56 9 66 12
17 5 42 61 30 67 -4 1 -31 0 -59 -3z"/>
<path d="M796 1965 c-7 -19 7 -31 42 -38 29 -6 32 -4 32 17 0 20 -6 25 -35 28
-20 2 -36 -1 -39 -7z"/>
<path d="M2274 1147 c-2 -7 -3 -58 -2 -112 l3 -100 85 -22 c82 -21 88 -21 170
-6 47 8 88 20 92 27 10 15 10 188 -1 204 -7 11 -22 11 -91 -1 -75 -12 -88 -12
-149 5 -78 21 -100 22 -107 5z m13 -29 c-3 -8 -6 -5 -6 6 -1 11 2 17 5 13 3
-3 4 -12 1 -19z m106 -13 c27 -7 27 -8 27 -87 l0 -80 -37 7 c-45 8 -55 13 -48
25 3 4 -4 6 -16 3 -19 -5 -20 -2 -18 70 l2 76 31 -3 c17 -2 43 -7 59 -11z
m145 -69 c3 -75 -7 -96 -44 -96 -23 0 -24 2 -24 79 0 75 1 80 23 84 38 7 42 2
45 -67z"/>
<path d="M620 1423 c0 -4 5 -15 10 -23 8 -13 10 -13 10 2 0 9 -4 20 -10 23 -5
3 -10 3 -10 -2z"/>
<path d="M2120 1300 c0 -5 5 -10 10 -10 6 0 10 5 10 10 0 6 -4 10 -10 10 -5 0
-10 -4 -10 -10z"/>
<path d="M1651 514 c0 -11 3 -14 6 -6 3 7 2 16 -1 19 -3 4 -6 -2 -5 -13z"/>
<path d="M2243 3161 c3 -31 27 -41 27 -11 0 12 -4 19 -9 16 -5 -4 -12 0 -15 6
-3 7 -4 2 -3 -11z"/>
<path d="M688 3114 c-38 -20 -36 -28 2 -9 17 9 30 18 30 20 0 7 -1 6 -32 -11z"/>
<path d="M605 3064 c-51 -34 -69 -52 -29 -29 35 20 82 54 74 55 -3 0 -23 -12
-45 -26z"/>
<path d="M865 3025 c-40 -14 -40 -14 -5 -9 19 4 39 10 45 15 11 11 10 11 -40
-6z"/>
<path d="M484 2983 c-74 -55 -103 -84 -98 -98 3 -7 -1 -19 -10 -27 -8 -8 -19
-32 -25 -54 -16 -58 -12 -65 7 -15 27 71 44 63 22 -10 -11 -35 -22 -83 -24
-108 l-5 -46 9 40 c24 101 52 169 42 105 -2 -16 0 -30 5 -30 6 0 11 27 12 60
1 36 -3 60 -9 60 -5 0 -10 11 -10 24 0 19 16 37 63 72 72 55 83 64 75 64 -3 0
-27 -16 -54 -37z"/>
<path d="M750 2995 c-22 -8 -28 -13 -15 -13 11 0 36 6 55 13 22 8 28 13 15 13
-11 0 -36 -6 -55 -13z"/>
<path d="M780 2976 l-115 -33 0 -224 c0 -123 1 -249 3 -279 l4 -55 101 6 c56
4 112 7 125 8 22 1 22 3 22 126 0 106 -2 124 -15 119 -8 -4 -13 -9 -11 -13 9
-14 18 -209 10 -213 -5 -3 -58 -9 -117 -12 l-108 -7 3 128 3 128 25 3 c14 2
52 9 86 17 81 20 111 19 117 -2 3 -10 5 62 5 160 0 129 -3 177 -11 176 -7 0
-64 -15 -127 -33z m121 7 c0 -5 2 -63 3 -130 l4 -121 -62 -11 c-33 -7 -80 -14
-103 -16 -24 -2 -47 -6 -52 -9 -11 -7 -19 65 -17 163 l1 73 80 23 c127 36 145
40 146 28z m-28 -280 c-7 -2 -19 -2 -25 0 -7 3 -2 5 12 5 14 0 19 -2 13 -5z
m-50 -10 c-7 -2 -21 -2 -30 0 -10 3 -4 5 12 5 17 0 24 -2 18 -5z m-78 -13
c-16 -4 -39 -8 -50 -8 -16 0 -15 2 5 8 14 4 36 8 50 8 22 0 22 -1 -5 -8z"/>
<path d="M552 2936 c-73 -22 -128 -42 -123 -44 11 -4 246 65 271 79 31 17 -15
7 -148 -35z"/>
<path d="M523 2902 l-93 -27 0 -253 0 -253 98 7 c53 4 100 12 104 18 4 6 8
129 8 274 0 203 -3 262 -12 261 -7 0 -55 -13 -105 -27z m99 -87 c1 -52 2 -103
2 -112 1 -18 -35 -30 -142 -47 l-43 -6 3 107 3 107 70 23 c110 35 105 38 107
-72z m-35 -161 c-3 -3 -12 -4 -19 -1 -8 3 -5 6 6 6 11 1 17 -2 13 -5z m34
-130 c-2 -65 -5 -121 -7 -123 -2 -3 -42 -6 -89 -8 l-85 -4 0 114 0 115 73 12
c39 6 77 13 82 15 27 9 30 -6 26 -121z"/>
<path d="M331 2724 c0 -11 3 -14 6 -6 3 7 2 16 -1 19 -3 4 -6 -2 -5 -13z"/>
<path d="M413 2675 c0 -27 2 -38 4 -22 2 15 2 37 0 50 -2 12 -4 0 -4 -28z"/>
<path d="M322 2680 c0 -14 2 -19 5 -12 2 6 2 18 0 25 -3 6 -5 1 -5 -13z"/>
<path d="M312 2630 c0 -14 2 -19 5 -12 2 6 2 18 0 25 -3 6 -5 1 -5 -13z"/>
<path d="M335 2533 c-3 -49 -8 -105 -11 -125 l-6 -38 45 0 c42 0 46 2 51 28 3
15 5 63 4 107 -2 101 -16 62 -17 -47 l-1 -78 -31 0 -31 0 7 120 c4 66 4 120 2
120 -3 0 -8 -39 -12 -87z"/>
<path d="M302 2545 c0 -16 2 -22 5 -12 2 9 2 23 0 30 -3 6 -5 -1 -5 -18z"/>
<path d="M303 1765 c0 -33 2 -45 4 -27 2 18 2 45 0 60 -2 15 -4 0 -4 -33z"/>
<path d="M313 1645 c0 -22 2 -30 4 -17 2 12 2 30 0 40 -3 9 -5 -1 -4 -23z"/>
<path d="M896 1598 c-3 -13 -6 -89 -6 -170 0 -136 2 -150 21 -169 39 -39 44
-23 47 161 2 119 -1 177 -9 186 -18 21 -46 17 -53 -8z m51 -160 c-3 -221 -21
-222 -25 -3 -2 139 0 165 12 165 12 0 14 -26 13 -162z"/>
<path d="M1444 968 c-4 -14 -2 -24 6 -26 9 -3 9 -6 -1 -13 -11 -7 -11 -12 4
-26 18 -17 19 -17 33 1 17 23 18 40 4 67 -14 26 -37 24 -46 -3z"/>
</g>
</svg>
